<?xml version="1.0" encoding="utf-8"?>
<!-- Generator: Adobe Illustrator 27.5.0, SVG Export Plug-In . SVG Version: 6.00 Build 0)  -->
<svg version="1.1" xmlns="http://www.w3.org/2000/svg" xmlns:xlink="http://www.w3.org/1999/xlink" x="0px" y="0px"
	 viewBox="0 0 3710 3710" style="enable-background:new 0 0 3710 3710;" xml:space="preserve">
<g id="Background">
	<g>
		<g>
			<rect style="fill:#FFFFFF;" width="3710" height="3710"/>
		</g>
	</g>
</g>
<g id="Illustration">
	<g>
		<path style="fill:#F4F7FA;" d="M3213.822,1629.244c-55.197-361.291-99.509-610.975-298.829-747.794
			c-336.204-230.78-711.677,143.864-1187.924-107.527c-234.486-123.775-243.275-267.282-441.865-286.33
			c-351.348-33.701-639.081,385.599-664.017,421.558c-151.509,218.481-202.119,484.887-140.698,738.871
			c39.891,164.966,66.849,335.699,59.449,505.213c-12.875,295.02-5.467,570.399,280.844,746.341
			c255.64,157.097,577.371,295.651,884.306,319.917c208.59,16.494,442.511-10.196,643.552-64.501
			C3373.197,2878.227,3289.714,2125.999,3213.822,1629.244z"/>
		<g>
			<rect x="1408.116" y="2878.031" style="fill:#C1CAD4;" width="1376.336" height="147.384"/>
			<rect x="1228.318" y="3025.415" style="fill:#AABBCC;" width="1745.453" height="95.2"/>
			<g>
				<linearGradient id="SVGID_1_" gradientUnits="userSpaceOnUse" x1="1638.6102" y1="2498.9255" x2="1567.7333" y2="1539.7242">
					<stop  offset="0" style="stop-color:#FFC444"/>
					<stop  offset="0.9964" style="stop-color:#F36F56"/>
				</linearGradient>
				<path style="fill:url(#SVGID_1_);" d="M1024.117,1772.343c-331.4,175.948-488.828,534.393-396.911,831.623
					c81.814,264.558,354.255,458.261,600.092,453.613c359.679-6.801,487.342-434.876,803.272-387.461
					c221.771,33.283,389.729,278.863,438.192,237.061c32.373-27.924-42.53-137.542,1.633-183.312
					c50.912-52.765,198.596,43.023,216.967,17.128c28.464-40.124-217.579-423.11-537.655-442.615
					c-395.799-24.118-559.029,528.639-932.972,481.616c-183.676-23.097-360.135-183.6-406.777-379.586
					c-47.697-200.417,43.816-423.434,233.812-563.912C1037.219,1815.114,1030.668,1793.728,1024.117,1772.343z"/>
				
					<linearGradient id="SVGID_00000136372587210042965940000002426379509235098773_" gradientUnits="userSpaceOnUse" x1="1607.2192" y1="2501.2454" x2="1536.342" y2="1542.0417">
					<stop  offset="0" style="stop-color:#FFC444"/>
					<stop  offset="0.9964" style="stop-color:#F36F56"/>
				</linearGradient>
				<path style="opacity:0.3;fill:url(#SVGID_00000136372587210042965940000002426379509235098773_);" d="M2626.713,2733.907
					c-70.604-123.41-177.983-246.944-335.246-288.956c-194.335-51.917-384.644,42.077-506.604,102.314
					c-329.647,162.814-341.892,358.223-544.688,377.592c-225.907,21.577-437.823-199.216-532.642-368.142
					c-52.653-93.802-78.567-188.339-88.631-275.911c-25.448,108.272-23.771,219.443,8.303,323.162
					c81.814,264.558,354.255,458.261,600.092,453.613c359.679-6.801,487.342-434.876,803.272-387.461
					c221.771,33.283,389.729,278.863,438.192,237.061c32.373-27.924-42.53-137.542,1.633-183.312
					C2502.758,2690.327,2574.216,2716.808,2626.713,2733.907z"/>
			</g>
			<g>
				
					<linearGradient id="SVGID_00000035514439000913329170000017445234132626217361_" gradientUnits="userSpaceOnUse" x1="2761.887" y1="880.5037" x2="2865.8394" y2="1858.6067">
					<stop  offset="0" style="stop-color:#FFC444"/>
					<stop  offset="0.9964" style="stop-color:#F36F56"/>
				</linearGradient>
				<path style="fill:url(#SVGID_00000035514439000913329170000017445234132626217361_);" d="M2627.105,1726.078
					c34.719,5.487,238.651,34.63,372.116-95.488c146.969-143.284,99.061-373,73.658-494.794
					c-57.585-276.116-246.468-476.86-281.564-459.683c-26.593,13.015,47.184,145.23-9.451,203.181
					c-73.552,75.261-291.816-51.73-312.617-16.889c-33.307,55.789,535.966,365.157,482.723,593.355
					c-15.731,67.424-86.752,131.803-146.48,165.38c-78.956,44.384-155.248,44.537-189.004,42.526
					C2620.027,1684.469,2623.566,1705.273,2627.105,1726.078z"/>
				
					<linearGradient id="SVGID_00000091695978881680908790000008308531303626185371_" gradientUnits="userSpaceOnUse" x1="2467.8408" y1="1294.4537" x2="3054.6216" y2="1294.4537">
					<stop  offset="0" style="stop-color:#FFC444"/>
					<stop  offset="0.9964" style="stop-color:#F36F56"/>
				</linearGradient>
				<path style="opacity:0.3;fill:url(#SVGID_00000091695978881680908790000008308531303626185371_);" d="M2961.42,1082.474
					c-92.228-84.886-193.732-41.081-321.308-127.579c-36.583-24.803-66.255-54.203-90.436-85.009
					c-41.318-11.956-73.108-19.743-80.428-7.482c-33.307,55.789,535.966,365.157,482.723,593.355
					c-15.731,67.424-86.752,131.803-146.48,165.38c-78.956,44.384-155.248,44.537-189.004,42.526
					c3.54,20.804,7.079,41.608,10.619,62.412c32.545,5.143,213.777,31.072,346.276-72.876
					c39.639-66.104,70.104-144.661,77.816-235.244C3055.822,1363.664,3071.164,1183.481,2961.42,1082.474z"/>
			</g>
			<g>
				<path style="fill:#C1CAD4;" d="M1746.372,769.886c-7.488-61.651-53.122-111.835-113.773-125.19
					c-188.559-41.523-366.373-38.609-534.45,4.565C929.1,688.458,769.977,767.87,621.813,891.667
					c-47.66,39.819-65.011,105.393-43.225,163.55c194.463,519.065,389.964,1036.271,872.965,1040.43
					C1878.213,1869.225,1813.184,1320.14,1746.372,769.886z M982.968,1376.122c-99.223-0.685-179.075-86.133-179.075-86.133
					s81.022-84.339,180.245-83.656c99.222,0.685,179.073,86.133,179.073,86.133S1082.19,1376.805,982.968,1376.122z
					 M1394.616,1862.622c-133.33,32.577-303.088-193.421-303.088-193.421s123.955,38.542,257.285,5.964
					c133.33-32.577,225.546-123.936,225.546-123.936S1527.947,1830.045,1394.616,1862.622z M1535.538,1241.109
					c-87.727,46.362-198.511,8.888-198.511,8.888s31.449-112.644,119.177-159.007c87.727-46.362,198.512-8.888,198.512-8.888
					S1623.265,1194.746,1535.538,1241.109z"/>
				<path style="opacity:0.3;fill:#FFFFFF;" d="M607.204,905.731c-1.191,1.314-2.355,2.646-3.493,3.996
					c-33.608,39.895-43.876,95.432-25.123,145.49c194.463,519.065,389.964,1036.271,872.965,1040.43l0.002-0.001
					c9.133-4.847,17.96-9.895,26.646-15.034c-12.724-32.017-23.707-65.442-32.419-100.416
					c-12.077-48.472-17.803-91.366-19.895-130.421c-9.849,5.754-20.257,10.156-31.27,12.847
					c-133.33,32.577-303.088-193.421-303.088-193.421s123.955,38.542,257.285,5.964c31.587-7.718,60.83-18.753,87.122-31.072
					c3.478-64.226-1.183-126.765-39.273-203.67c-130.544-263.566-422.007-228.189-534.182-476.432
					c-31.192-69.031-40.127-141.499-36.159-211.722c-4.057,2.188-8.108,4.412-12.152,6.657c-0.515,0.286-1.032,0.57-1.549,0.858
					c-3.809,2.123-7.612,4.274-11.41,6.447c-0.732,0.419-1.465,0.838-2.197,1.26c-3.692,2.124-7.38,4.27-11.061,6.441
					c-0.792,0.467-1.585,0.939-2.375,1.408c-3.67,2.177-7.336,4.371-10.993,6.595c-0.711,0.432-1.42,0.871-2.129,1.305
					c-3.769,2.301-7.532,4.618-11.287,6.97c-0.274,0.172-0.549,0.349-0.823,0.521c-12.139,7.616-24.21,15.504-36.217,23.652
					c-0.611,0.414-1.223,0.818-1.832,1.234c-2.89,1.969-5.772,3.973-8.654,5.974c-1.672,1.161-3.347,2.312-5.018,3.484
					c-2.555,1.79-5.102,3.608-7.649,5.423c-2,1.426-4.001,2.85-5.997,4.291c-2.36,1.702-4.715,3.422-7.068,5.145
					c-2.198,1.609-4.395,3.225-6.588,4.852c-2.207,1.638-4.41,3.284-6.613,4.94c-2.356,1.772-4.708,3.558-7.059,5.351
					c-2.063,1.573-4.124,3.147-6.182,4.737c-2.552,1.971-5.098,3.964-7.643,5.961c-1.861,1.46-3.725,2.913-5.584,4.387
					c-2.918,2.316-5.831,4.661-8.742,7.011c-1.49,1.203-2.986,2.392-4.473,3.604c-4.414,3.594-8.818,7.219-13.213,10.891
					c-2.978,2.489-5.839,5.078-8.579,7.76C611.147,901.47,609.152,903.583,607.204,905.731z M984.139,1206.333
					c99.222,0.685,179.073,86.133,179.073,86.133s-81.022,84.339-180.244,83.656c-99.223-0.685-179.075-86.133-179.075-86.133
					S884.915,1205.649,984.139,1206.333z"/>
			</g>
			<g>
				<path style="fill:#C1CAD4;" d="M2972.003,864.971c-152.364-118.593-314.141-192.447-484.446-225.766
					c-169.47-37.33-347.279-34.085-534.287,13.943c-60.153,15.448-104.023,67.181-109.371,129.054
					c-47.717,552.238-93.697,1103.246,340.549,1314.759c482.566-20.881,660.042-544.546,836.413-1070.034
					C3040.622,968.049,3021.01,903.116,2972.003,864.971z M2145.015,1093.067c89.279,43.297,124.611,154.784,124.611,154.784
					s-109.422,41.288-198.702-2.01c-89.28-43.297-124.611-154.784-124.611-154.784S2055.734,1049.77,2145.015,1093.067z
					 M2257.002,1748.026c-134.378-27.941-253.422-1.976-253.422-1.976s148.22-166.279,282.597-138.338
					c134.378,27.941,204.029,239.522,204.029,239.522S2391.379,1775.966,2257.002,1748.026z M2627.839,1361.64
					c-99.141,4.12-183.034-77.364-183.034-77.364s76.846-88.162,175.985-92.281c99.139-4.119,183.033,77.364,183.033,77.364
					S2726.978,1357.521,2627.839,1361.64z"/>
				<path style="opacity:0.3;fill:#FFFFFF;" d="M2184.449,2096.96c0.009,0,0.019-0.001,0.029-0.001
					c10.318-0.448,20.451-1.208,30.494-2.109c2.286-34.376,6.748-69.276,13.927-104.596
					c20.363-100.205,54.654-167.956,88.413-226.34c-19.069-6.065-39.252-11.509-60.31-15.887
					c-134.378-27.941-253.422-1.976-253.422-1.976s148.22-166.279,282.597-138.338c34.531,7.18,64.777,26.502,90.676,51.229
					c24.314-49.554,41.005-103.177,39.881-177.103c-4.481-294.09-282.819-387.522-277.306-659.878
					c1.532-75.735,24.639-145,58.427-206.688c-4.607,0.23-9.222,0.496-13.84,0.784c-0.586,0.036-1.172,0.07-1.758,0.108
					c-4.353,0.277-8.712,0.584-13.076,0.912c-0.843,0.063-1.686,0.127-2.53,0.193c-4.241,0.328-8.488,0.679-12.739,1.055
					c-0.926,0.082-1.852,0.169-2.778,0.252c-4.247,0.386-8.497,0.79-12.753,1.224c-0.817,0.083-1.636,0.174-2.453,0.259
					c-4.404,0.458-8.811,0.932-13.224,1.441c-0.294,0.034-0.589,0.072-0.883,0.106c-14.308,1.662-28.674,3.6-43.093,5.805
					c-0.672,0.102-1.343,0.196-2.015,0.3c-3.478,0.538-6.963,1.112-10.448,1.681c-1.99,0.325-3.978,0.641-5.97,0.977
					c-3.084,0.52-6.175,1.065-9.263,1.61c-2.411,0.425-4.821,0.849-7.234,1.289c-2.875,0.524-5.756,1.066-8.635,1.612
					c-2.657,0.504-5.315,1.014-7.974,1.536c-2.712,0.532-5.427,1.073-8.142,1.624c-2.876,0.584-5.756,1.182-8.637,1.787
					c-2.547,0.535-5.094,1.071-7.646,1.623c-3.14,0.68-6.283,1.381-9.429,2.087c-2.323,0.52-4.644,1.034-6.968,1.568
					c-3.575,0.821-7.154,1.673-10.733,2.527c-1.929,0.461-3.856,0.906-5.787,1.376c-5.433,1.323-10.872,2.678-16.321,4.076
					c-0.084,0.022-0.169,0.042-0.254,0.064c-3.759,0.966-7.456,2.073-11.083,3.315c-1.814,0.621-3.609,1.276-5.389,1.965
					c-7.113,2.753-13.939,6.034-20.433,9.793c-4.873,2.82-9.559,5.908-14.039,9.242c-4.482,3.335-8.76,6.917-12.815,10.724
					c-1.352,1.269-2.678,2.564-3.979,3.882c-19.523,19.778-33.331,45.015-39.132,73.019c-1.16,5.601-1.999,11.313-2.501,17.113
					c-0.746,8.629-1.491,17.257-2.234,25.884C1794.864,1351.576,1756.988,1888.752,2184.449,2096.96z M2145.015,1093.067
					c89.279,43.297,124.611,154.784,124.611,154.784s-109.422,41.288-198.702-2.01c-89.28-43.297-124.611-154.784-124.611-154.784
					S2055.734,1049.77,2145.015,1093.067z"/>
			</g>
			<g>
				
					<linearGradient id="SVGID_00000029033156385276871540000015575912051754549411_" gradientUnits="userSpaceOnUse" x1="1988.7249" y1="1916.8923" x2="2367.4878" y2="1916.8923">
					<stop  offset="0" style="stop-color:#FF9085"/>
					<stop  offset="1" style="stop-color:#FB6FBB"/>
				</linearGradient>
				<path style="fill:url(#SVGID_00000029033156385276871540000015575912051754549411_);" d="M2307.618,1724.768
					c1.161,7.266,2.323,14.531,3.484,21.797c-148.621,86.957-174.383,119.212-169.064,132.31
					c5.85,14.404,48.391,3.435,129.16,23.101c51.673,12.582,82.162,20.006,92.408,42.004
					c20.332,43.652-42.021,138.319-120.892,160.253c-110.446,30.714-253.545-81.125-253.987-180.204
					C1988.304,1829.669,2117.138,1716.872,2307.618,1724.768z"/>
				
					<linearGradient id="SVGID_00000127762166975419622680000016025473519721085573_" gradientUnits="userSpaceOnUse" x1="1988.7249" y1="1952.3325" x2="2367.489" y2="1952.3325">
					<stop  offset="0" style="stop-color:#FF9085"/>
					<stop  offset="1" style="stop-color:#FB6FBB"/>
				</linearGradient>
				<path style="opacity:0.3;fill:url(#SVGID_00000127762166975419622680000016025473519721085573_);" d="M2174.59,1957.631
					c-62.162-41.078-117.574-39.722-132.31-78.756c-6.716-17.79-4.927-43.851,21.867-83.619
					c-48.247,37.731-75.615,85.212-75.421,128.772c0.442,99.079,143.541,210.918,253.987,180.204
					c13.458-3.743,26.416-9.641,38.584-17.004C2258.932,2038.851,2225.507,1991.277,2174.59,1957.631z"/>
				
					<linearGradient id="SVGID_00000033329801224390200500000007603381199515861671_" gradientUnits="userSpaceOnUse" x1="2178.1077" y1="3037.6929" x2="2322.5713" y2="3037.6929">
					<stop  offset="0" style="stop-color:#444B8C"/>
					<stop  offset="0.9964" style="stop-color:#26264F"/>
				</linearGradient>
				<polygon style="fill:url(#SVGID_00000033329801224390200500000007603381199515861671_);" points="2253.775,3019.843 
					2178.108,3063.906 2322.571,3053.117 2313.996,3011.479 				"/>
				
					<linearGradient id="SVGID_00000132773776585072227520000007931869346982948753_" gradientUnits="userSpaceOnUse" x1="2728.0562" y1="1878.8625" x2="2583.1448" y2="2093.0793">
					<stop  offset="0.0036" style="stop-color:#E38DDD"/>
					<stop  offset="0.7059" style="stop-color:#AC79EF"/>
					<stop  offset="1" style="stop-color:#9571F6"/>
				</linearGradient>
				<path style="fill:url(#SVGID_00000132773776585072227520000007931869346982948753_);" d="M2495.403,1761.488
					c17.025,9.025,24.304,11.953,35.84,17.663c4.321,2.139,84.481,42.231,121.134,80.823c51.144,53.851,9.772,96.571,49.355,173.263
					c54.147,104.91,167.222,94.063,182.714,174.313c11.812,61.184-44.314,117.214-55.177,127.531
					c-92.455,87.822-280.152,69.285-365.907-27.773c-63-71.305-62.119-174.959-61.954-194.266
					c0.799-93.845,44.744-137.596,14.701-211.067c-13.328-32.597-31.816-48.042-32.552-86.106
					c-0.761-39.443,17.892-84.924,43.053-89.257C2440.031,1724.301,2446.004,1735.301,2495.403,1761.488z"/>
				
					<linearGradient id="SVGID_00000093869623562237586150000002816728493611569850_" gradientUnits="userSpaceOnUse" x1="2690.3298" y1="1944.0603" x2="2570.8274" y2="2120.7161">
					<stop  offset="0.0036" style="stop-color:#E38DDD"/>
					<stop  offset="0.7059" style="stop-color:#AC79EF"/>
					<stop  offset="1" style="stop-color:#9571F6"/>
				</linearGradient>
				<path style="opacity:0.3;fill:url(#SVGID_00000093869623562237586150000002816728493611569850_);" d="M2502.639,1847.213
					c13.422,7.482,19.16,9.91,28.255,14.644c3.406,1.773,66.603,35.013,95.499,67.01c40.321,44.648,7.704,80.067,38.91,143.653
					c42.687,86.98,131.833,77.987,144.047,144.523c9.313,50.728-34.936,97.182-43.5,105.737
					c-72.889,72.813-220.864,57.444-288.471-23.027c-49.668-59.119-48.973-145.058-48.843-161.065
					c0.629-77.806,35.274-114.08,11.589-174.995c-10.508-27.026-25.083-39.832-25.663-71.391
					c-0.6-32.702,14.106-70.41,33.942-74.003C2458.984,1816.381,2463.693,1825.501,2502.639,1847.213z"/>
				
					<linearGradient id="SVGID_00000120557386352570066720000002124204394813396159_" gradientUnits="userSpaceOnUse" x1="2381.8147" y1="1690.8342" x2="2507.6829" y2="1877.6698">
					<stop  offset="0" style="stop-color:#444B8C"/>
					<stop  offset="0.9964" style="stop-color:#26264F"/>
				</linearGradient>
				<path style="fill:url(#SVGID_00000120557386352570066720000002124204394813396159_);" d="M2392.49,1880.437
					c16.742,58.567,0.014,76.198,18.925,95.799c30.253,31.358,105.08,13.041,150.201-17.74
					c16.513-11.265,52.65-35.869,50.858-66.232c-1.996-33.834-48.858-37.137-61.428-81.119
					c-10.703-37.446,18.019-53.411,9.451-89.782c-10.397-44.134-66.25-72.503-111.834-77.181
					c-3.704-0.38-82.608-7.486-108.274,38.492c-13.585,24.338-5.719,51.841,5.425,90.801
					C2361.406,1827.989,2378.253,1830.636,2392.49,1880.437z"/>
				
					<linearGradient id="SVGID_00000167376227682341752930000008783604371628674470_" gradientUnits="userSpaceOnUse" x1="2313.8816" y1="2101.311" x2="2565.9006" y2="2885.7222">
					<stop  offset="0" style="stop-color:#FF9085"/>
					<stop  offset="1" style="stop-color:#FB6FBB"/>
				</linearGradient>
				<path style="fill:url(#SVGID_00000167376227682341752930000008783604371628674470_);" d="M2271.197,1901.976
					c62.305,12.951,124.61,25.902,186.915,38.853c6.5,14.203,14.847,36.904,15.751,65.105c2.078,64.8-37.184,94.906-52.503,142.811
					c-28.048,87.707,36.862,195.358,91.357,248.869c83.628,82.116,151.61,45.456,232.068,129.16
					c50.226,52.253,38.638,82.046,86.107,183.764c97.29,208.477,225.697,254.176,202.665,318.175
					c-24.494,68.064-191.057,75.619-284.571,66.155c-147.385-14.916-184.905-79.354-334.336-80.361
					c-117.149-0.79-130.185,38.57-180.204,18.406c-155.44-62.66-141.506-487.897-84.006-765.51
					C2184.601,2102.474,2237.043,1975.624,2271.197,1901.976z"/>
				
					<linearGradient id="SVGID_00000034802722615466277190000006858430172329575354_" gradientUnits="userSpaceOnUse" x1="2110.366" y1="2836.9966" x2="3036.2522" y2="2836.9966">
					<stop  offset="0" style="stop-color:#FF9085"/>
					<stop  offset="1" style="stop-color:#FB6FBB"/>
				</linearGradient>
				<path style="opacity:0.3;fill:url(#SVGID_00000034802722615466277190000006858430172329575354_);" d="M2610.375,2773.545
					c-85.258,4.95-96.878,134.559-190.065,149.111c-124.816,19.492-247.405-190.629-253.07-200.565
					c-27.492-48.216-44.889-97.75-55.126-146.28c-9.586,212.716,18.783,415.362,122.332,457.104
					c50.02,20.163,63.055-19.196,180.204-18.406c149.432,1.008,186.952,65.445,334.336,80.361
					c93.514,9.464,260.077,1.909,284.571-66.155c2.263-6.286,3.044-12.395,2.557-18.499c-58.506-1.738-122.451-13.959-183.17-47.656
					C2723.541,2890.744,2693.908,2768.694,2610.375,2773.545z"/>
				
					<linearGradient id="SVGID_00000168833636010268619480000009172640581471596693_" gradientUnits="userSpaceOnUse" x1="2745.6887" y1="2481.845" x2="2230.6489" y2="3313.4683">
					<stop  offset="0" style="stop-color:#FFC444"/>
					<stop  offset="0.9964" style="stop-color:#F36F56"/>
				</linearGradient>
				<path style="fill:url(#SVGID_00000168833636010268619480000009172640581471596693_);" d="M2737.706,2451.156
					c0,0,87.936-30.296,98.962-35.093c11.024-4.796-39.483,44.134-61.431,45.363c-21.947,1.229-17.851,8.343-11.551,24.245
					c6.301,15.902-15.207-7.2-25.98-13.5c-10.772-6.301-16.487-18.727-16.487-18.727v-16.132L2737.706,2451.156z"/>
				
					<linearGradient id="SVGID_00000111163302667720050710000016203824001093138575_" gradientUnits="userSpaceOnUse" x1="2499.0266" y1="2041.8275" x2="2751.0459" y2="2826.2393">
					<stop  offset="0" style="stop-color:#FF9085"/>
					<stop  offset="1" style="stop-color:#FB6FBB"/>
				</linearGradient>
				<path style="fill:url(#SVGID_00000111163302667720050710000016203824001093138575_);" d="M2718.532,2471.121
					c4.901-11.901,9.802-23.802,14.702-35.703c-19.584-34.507-51.193-92.509-85.057-166.963
					c-87.784-193.006-108.47-315.737-180.615-327.625c-25.165-4.147-54.986,2.302-70.356,21.001
					c-43.011,52.328,38.835,182.629,77.178,243.673C2519.053,2276.617,2594.028,2375.278,2718.532,2471.121z"/>
				
					<linearGradient id="SVGID_00000126302616612117263010000009328225780796361361_" gradientUnits="userSpaceOnUse" x1="2336.7063" y1="2003.8635" x2="2446.9653" y2="1723.4917">
					<stop  offset="0" style="stop-color:#FFC444"/>
					<stop  offset="0.9964" style="stop-color:#F36F56"/>
				</linearGradient>
				<path style="fill:url(#SVGID_00000126302616612117263010000009328225780796361361_);" d="M2385.036,1869.98
					c0,0-29.658,43.438-73.023,40.481l-28.735,63.971c0,0,121.82,27.61,121.025,22.731c-0.795-4.879,20.824-63.19,20.824-63.19
					s-13.254-17.081,8.275-71.538L2385.036,1869.98z"/>
				
					<linearGradient id="SVGID_00000041297933016901883960000007900576486496771236_" gradientUnits="userSpaceOnUse" x1="960.8015" y1="1617.8002" x2="1558.1978" y2="1258.1427" gradientTransform="matrix(0.9656 0.2601 -0.2601 0.9656 1849.4651 -0.4968)">
					<stop  offset="0" style="stop-color:#FFC444"/>
					<stop  offset="0.9964" style="stop-color:#F36F56"/>
				</linearGradient>
				<path style="fill:url(#SVGID_00000041297933016901883960000007900576486496771236_);" d="M2439.125,1869.076
					c0,0-50.339,40.545-102.311,4.001c-46.542-32.723,20.158-157.716,65.189-161.897c15.017-1.39,39.487,7.604,53.431,22.574
					c9.809,10.527,30.756,58.109,0.91,97.071c14.056-0.265,24.605,6.254,25.737,13.486c1.447,9.171-12.601,17.349-15.776,19.202
					C2455.277,1869.939,2444.159,1869.573,2439.125,1869.076z"/>
				
					<linearGradient id="SVGID_00000026126805334162244540000009158940963187536009_" gradientUnits="userSpaceOnUse" x1="2109.3215" y1="2087.7332" x2="1594.2809" y2="2919.3582">
					<stop  offset="0" style="stop-color:#FFC444"/>
					<stop  offset="0.9964" style="stop-color:#F36F56"/>
				</linearGradient>
				<path style="fill:url(#SVGID_00000026126805334162244540000009158940963187536009_);" d="M2363.199,1635.588
					c0,0,17.735,48.517,7.757,76.166c-9.978,27.649-59.854,34.811-59.854,34.811l-3.484-21.797c0,0,39.22-10.604,33.421-23.948
					C2335.239,1687.475,2348.177,1643.536,2363.199,1635.588z"/>
			</g>
			<g>
				<path style="fill:#DADFE5;" d="M1862.545,1725.669c-31.753,47.196-82.395,111.275-158.261,172.128
					c-73.426,58.895-144.511,93.938-196.404,114.77c-30.535,95.661-21.3,133.43-3.001,148.242
					c51.405,41.609,230.525-52.477,316.976-197.595c49.606-83.268,58.985-167.03,59.855-219.468
					C1875.321,1737.72,1868.933,1731.694,1862.545,1725.669z"/>
				
					<linearGradient id="SVGID_00000113313757061998846860000014184528857842192783_" gradientUnits="userSpaceOnUse" x1="1880.7046" y1="1763.1891" x2="1932.6833" y2="1624.5785">
					<stop  offset="0" style="stop-color:#FFC444"/>
					<stop  offset="0.9964" style="stop-color:#F36F56"/>
				</linearGradient>
				<path style="fill:url(#SVGID_00000113313757061998846860000014184528857842192783_);" d="M1861.443,1741.9
					c0,0,18.069-19.568,14.898-35.499c-3.171-15.931,14.819-12.652,29.52,7.096c14.701,19.748,8.654,34.17,8.654,34.17
					s-37.353-4.971-44.531,4.48C1862.807,1761.597,1861.443,1741.9,1861.443,1741.9z"/>
				<polygon style="fill:#FFFFFF;" points="1906.911,1675.432 2179.888,1328.772 2346.941,1241.759 2297.526,1426.621 
					1927.911,1692.543 				"/>
				
					<linearGradient id="SVGID_00000109002873321949988500000001455082637140255648_" gradientUnits="userSpaceOnUse" x1="1922.6621" y1="1472.9031" x2="2332.0486" y2="1472.9031">
					<stop  offset="0.494" style="stop-color:#EBEFF2"/>
					<stop  offset="1" style="stop-color:#FFFFFF"/>
				</linearGradient>
				<polygon style="fill:url(#SVGID_00000109002873321949988500000001455082637140255648_);" points="2332.049,1261.758 
					1922.662,1677.452 1927.911,1684.049 2285.82,1421.37 				"/>
				
					<linearGradient id="SVGID_00000154392177578983613340000007110936527326804889_" gradientUnits="userSpaceOnUse" x1="1850.9139" y1="1703.4233" x2="1945.2135" y2="1703.4233">
					<stop  offset="0.494" style="stop-color:#EBEFF2"/>
					<stop  offset="1" style="stop-color:#FFFFFF"/>
				</linearGradient>
				<path style="fill:url(#SVGID_00000154392177578983613340000007110936527326804889_);" d="M1850.914,1675.686
					c0,0,40.243-42.733,76.997-6.238c36.754,36.495,5.298,71.148-6.276,82.699L1850.914,1675.686z"/>
				<path style="opacity:0.3;fill:#C1CAD4;" d="M1773.55,1966.363c-41.282,15.157-67.636,2.488-110.259,9.451
					c-48.733,7.961-110.738,40.315-175.135,142.96c1.066,22.136,7.811,34.822,16.722,42.034
					c51.405,41.609,230.525-52.477,316.976-197.595c11.963-20.081,21.567-40.186,29.295-59.878
					C1831.265,1931.37,1805.969,1954.46,1773.55,1966.363z"/>
				
					<linearGradient id="SVGID_00000076570489033050752020000011552102276645290644_" gradientUnits="userSpaceOnUse" x1="1349.6992" y1="1774.957" x2="1386.8763" y2="1774.957">
					<stop  offset="0" style="stop-color:#444B8C"/>
					<stop  offset="0.9964" style="stop-color:#26264F"/>
				</linearGradient>
				<path style="fill:url(#SVGID_00000076570489033050752020000011552102276645290644_);" d="M1368.668,1761.104
					c-3.823-4.62-11.021-4.237-14.331,0.763l-3.152,4.762c-2.758,4.164-1.564,9.78,2.647,12.464l20.33,12.956l12.714-8.939
					L1368.668,1761.104z"/>
				
					<linearGradient id="SVGID_00000048497923727007037650000013653380340542174396_" gradientUnits="userSpaceOnUse" x1="1557.1364" y1="2983.1746" x2="1558.7115" y2="2891.8176">
					<stop  offset="0" style="stop-color:#311944"/>
					<stop  offset="0.9047" style="stop-color:#953671"/>
					<stop  offset="1" style="stop-color:#A03976"/>
				</linearGradient>
				<path style="fill:url(#SVGID_00000048497923727007037650000013653380340542174396_);" d="M1545.73,2808.943l-10.89,31.783
					c0,0,61.977,5.274,79.8,34.316l-98.259-2.354c-9.776-0.235-15.828-10.743-11.124-19.316l21.1-38.457L1545.73,2808.943z"/>
				
					<linearGradient id="SVGID_00000168830815681075029510000014762452281499651998_" gradientUnits="userSpaceOnUse" x1="1531.5477" y1="2446.064" x2="1348.8334" y2="2956.4043">
					<stop  offset="0" style="stop-color:#444B8C"/>
					<stop  offset="0.9964" style="stop-color:#26264F"/>
				</linearGradient>
				<path style="fill:url(#SVGID_00000168830815681075029510000014762452281499651998_);" d="M1409.172,2394.796
					c91.257,0.795,162.991-2.365,212.2-5.457c40.887-2.569,72.56-5.49,86.77,13.392c20.766,27.594-10.188,82.59-27,113.874
					c-36.634,68.168-83.804,168.305-130.528,309.679c-13.895,0.731-27.791,1.463-41.685,2.195c-1.204-23.936-2.035-57.941,0-98.708
					c3.047-61.029,4.787-95.854,19.883-135.95c9.257-24.588,28.219-63.591,69.447-103.309
					c-160.163,42.753-247.739,49.15-262.742,19.197C1325.103,2488.919,1349.653,2450.616,1409.172,2394.796z"/>
				
					<linearGradient id="SVGID_00000145030344500911415250000009103162621153367222_" gradientUnits="userSpaceOnUse" x1="1519.8566" y1="2441.8782" x2="1337.1421" y2="2952.2192">
					<stop  offset="0" style="stop-color:#444B8C"/>
					<stop  offset="0.9964" style="stop-color:#26264F"/>
				</linearGradient>
				<path style="opacity:0.3;fill:url(#SVGID_00000145030344500911415250000009103162621153367222_);" d="M1559.334,2612.163
					c26.148-42.002,80.208-54.876,96.083-118.134c5.758-22.944,13.51-53.836-1.575-67.73
					c-33.079-30.467-125.445,67.333-217.367,40.953c-25.231-7.241-45.186-22.348-60.716-39.011
					c-35.003,37.971-48.424,65.13-40.241,81.468c15.004,29.953,102.58,23.556,262.742-19.197
					c-41.229,39.719-60.19,78.721-69.447,103.309c-15.096,40.096-16.836,74.921-19.883,135.95c-2.035,40.767-1.204,74.772,0,98.708
					c13.895-0.731,27.791-1.463,41.685-2.195c5.326-16.113,10.655-31.663,15.976-46.718
					C1531.721,2691.67,1540.744,2642.023,1559.334,2612.163z"/>
				
					<linearGradient id="SVGID_00000065794691554968691710000011327348595932402358_" gradientUnits="userSpaceOnUse" x1="1087.3162" y1="2094.6543" x2="869.9489" y2="2696.3516">
					<stop  offset="0" style="stop-color:#FF9085"/>
					<stop  offset="1" style="stop-color:#FB6FBB"/>
				</linearGradient>
				<path style="fill:url(#SVGID_00000065794691554968691710000011327348595932402358_);" d="M1250.61,2666.767
					c-15.736,18.891-70.802,85-142.812,84.007c-61.536-0.849-75.43-49.874-144.911-79.806
					c-124.999-53.85-203.603,51.586-317.124,8.401c-104.761-39.853-175.415-181.989-140.71-241.519
					c34.693-59.508,155.705-3.952,300.322-46.203c163.381-47.734,121.649-187.039,323.426-306.624
					c110.879-65.713,210.374-81.239,276.06-90.821c38.62-5.634,160.496-23.413,172.014,7.953
					c12.37,33.69-125.105,62.714-206.557,183.676C1256.827,2354.373,1380.154,2511.246,1250.61,2666.767z"/>
				
					<linearGradient id="SVGID_00000007399621417890018330000013685040815413351355_" gradientUnits="userSpaceOnUse" x1="1089.9602" y1="2095.6099" x2="872.5932" y2="2697.3066">
					<stop  offset="0" style="stop-color:#FF9085"/>
					<stop  offset="1" style="stop-color:#FB6FBB"/>
				</linearGradient>
				<path style="opacity:0.3;fill:url(#SVGID_00000007399621417890018330000013685040815413351355_);" d="M1374.163,2033.427
					c-53.697,33.631-59.421,70.719-149.669,137.827c-96.569,71.807-120.512,52.021-190.201,106.984
					c-122.029,96.243-83.975,184.804-191.116,252.02c-7.991,5.013-129.383,78.4-254.119,21.001
					c-41.072-18.9-71.117-46.743-92.866-75.032c0.294,68.293,63.349,170.343,149.57,203.142
					c113.521,43.185,192.125-62.251,317.124-8.401c69.481,29.933,83.375,78.958,144.911,79.806
					c72.01,0.993,127.076-65.116,142.812-84.007c129.545-155.521,6.218-312.394,119.709-480.937
					c80.287-119.232,214.998-149.137,206.987-182.233C1477.95,1988.126,1415.258,2007.689,1374.163,2033.427z"/>
				
					<linearGradient id="SVGID_00000037665205376474873230000001628069140937318573_" gradientUnits="userSpaceOnUse" x1="1029.3209" y1="3101.8513" x2="1139.301" y2="3101.8513">
					<stop  offset="0" style="stop-color:#311944"/>
					<stop  offset="1" style="stop-color:#A03976"/>
				</linearGradient>
				<path style="fill:url(#SVGID_00000037665205376474873230000001628069140937318573_);" d="M1134.48,3065.449l-14.856,35.902
					c0,0,69.385,13.704,70.082,36.903h-98.467c-8.675,0-14.225-9.24-10.15-16.898l25.323-47.585L1134.48,3065.449z"/>
				
					<linearGradient id="SVGID_00000002382249495479463130000004670401029858302134_" gradientUnits="userSpaceOnUse" x1="1353.1343" y1="2382.1875" x2="1170.42" y2="2892.5278">
					<stop  offset="0" style="stop-color:#444B8C"/>
					<stop  offset="0.9964" style="stop-color:#26264F"/>
				</linearGradient>
				<path style="fill:url(#SVGID_00000002382249495479463130000004670401029858302134_);" d="M1425.295,2433.595
					c-52.428,112.208-104.664,226.896-156.557,344.051c-46.958,106.013-92.229,210.869-135.88,314.48
					c-13.253-1.426-26.506-2.851-39.76-4.276c-12.389-57.017-20.339-138.349,11.567-222.137
					c23.651-62.11,45.145-62.389,73.489-128.59c54.494-127.274,6.396-199.454,56.704-258.32
					C1259.421,2450.063,1309.795,2421.738,1425.295,2433.595z"/>
				
					<linearGradient id="SVGID_00000028327003094083633840000002520643898536193920_" gradientUnits="userSpaceOnUse" x1="1501.1804" y1="2078.9385" x2="1277.5129" y2="2384.5122">
					<stop  offset="0" style="stop-color:#AA80F9"/>
					<stop  offset="0.9964" style="stop-color:#6165D7"/>
				</linearGradient>
				<path style="fill:url(#SVGID_00000028327003094083633840000002520643898536193920_);" d="M1345.117,2014.666
					c3.782-1.97,34.425-2.741,95.558-4.2c116.71-2.787,121.318-2.485,127.073,3.161c47.069,46.174-50.473,232.701-128.6,342.131
					c-3.238,4.536-5.947,8.243-7.744,10.687c29.789,5.979,38.698,15.199,40.773,23.101c8.143,31.011-73.002,102.61-165.837,117.887
					c-51.087,8.407-85.893-3.503-123.098,25.309c-28.452,22.034-36.954,51.348-42.892,48.968
					c-8.109-3.25,1.763-60.315,26.303-115.01c29.003-64.642,59.784-84.271,88.156-124.409
					C1349.707,2208.042,1269.36,2054.134,1345.117,2014.666z"/>
				
					<linearGradient id="SVGID_00000121246451511137494100000013195346590548210074_" gradientUnits="userSpaceOnUse" x1="1453.7753" y1="2080.3584" x2="1474.2518" y2="1941.7477">
					<stop  offset="0" style="stop-color:#FFC444"/>
					<stop  offset="0.9964" style="stop-color:#F36F56"/>
				</linearGradient>
				<path style="fill:url(#SVGID_00000121246451511137494100000013195346590548210074_);" d="M1473.256,1938.005
					c0,0-14.955,62.698-56.137,68.987c-41.182,6.288,71.285,30.554,88.576,29.452c17.29-1.102,15.299-25.24,0-29.452
					c-15.301-4.213,5.765-52.109,5.765-52.109L1473.256,1938.005z"/>
				
					<linearGradient id="SVGID_00000044142663357978700780000001547966044166519484_" gradientUnits="userSpaceOnUse" x1="1515.5101" y1="1932.6296" x2="1301.2938" y2="1644.3826">
					<stop  offset="0" style="stop-color:#FFC444"/>
					<stop  offset="0.9964" style="stop-color:#F36F56"/>
				</linearGradient>
				<path style="fill:url(#SVGID_00000044142663357978700780000001547966044166519484_);" d="M1517.928,1804.295
					c5.943,12.281,70.092,115.628,34.222,156.174c-35.869,40.546-101.127-16.877-101.127-16.877s-10.332,7.923-31.35-8.694
					C1398.655,1918.281,1517.928,1804.295,1517.928,1804.295z"/>
				
					<linearGradient id="SVGID_00000124857209851259428720000004943620191925624496_" gradientUnits="userSpaceOnUse" x1="1356.4121" y1="1841.2408" x2="1494.9395" y2="1841.2408">
					<stop  offset="0" style="stop-color:#AA80F9"/>
					<stop  offset="0.9964" style="stop-color:#6165D7"/>
				</linearGradient>
				<path style="fill:url(#SVGID_00000124857209851259428720000004943620191925624496_);" d="M1405.946,1930.66
					c-3.074-3.15-77.769-84.465-37.796-149.341c39.972-64.876,126.79-2.503,126.79-2.503L1405.946,1930.66z"/>
				
					<linearGradient id="SVGID_00000155115885673266861950000005789586541247493553_" gradientUnits="userSpaceOnUse" x1="1554.0815" y1="1780.6895" x2="1243.257" y2="1997.0062">
					<stop  offset="0" style="stop-color:#444B8C"/>
					<stop  offset="0.9964" style="stop-color:#26264F"/>
				</linearGradient>
				<path style="fill:url(#SVGID_00000155115885673266861950000005789586541247493553_);" d="M1395.415,1930.66l21.774,14.546
					c0,0,22.541-58.692,79.817-101.747c43.483-32.687,77.416-62.978,91.238-75.672c2.872-2.638,1.56-7.406-2.252-8.231
					l-57.95-12.553c-16.462-3.566-33.529,2.363-44.192,15.402C1456.438,1795.927,1406.504,1864.451,1395.415,1930.66z"/>
				
					<linearGradient id="SVGID_00000121249559746989426130000014580222822118789557_" gradientUnits="userSpaceOnUse" x1="744.3889" y1="1713.4832" x2="1366.6147" y2="1713.4832">
					<stop  offset="0.0036" style="stop-color:#E38DDD"/>
					<stop  offset="0.7059" style="stop-color:#AC79EF"/>
					<stop  offset="1" style="stop-color:#9571F6"/>
				</linearGradient>
				<path style="fill:url(#SVGID_00000121249559746989426130000014580222822118789557_);" d="M1366.615,1765.727
					c-5.645-20.693-16.682-51.927-39.615-83.866c-12.827-17.864-29.149-35.632-95.478-83.96
					c-65.23-47.527-97.847-71.291-118.133-75.188c-32.444-6.233-64.494,1.18-154.702,53.019
					c-144.72,83.165-217.082,124.747-214.217,171.163c3.476,56.307,90.316,115.735,158.561,105.008
					c72.8-11.443,107.016-99.978,137.017-87.703c27.772,11.363-1.054,87.43,41.498,123.406
					c29.743,25.146,87.081,24.551,121.809-1.05c63.582-46.874,32.835-163.905,72.456-175.363
					c15.561-4.5,37.698,17.015,59.452,36.981c11.424,10.487,19.841,20.531,25.605,28.124
					C1362.783,1772.774,1364.7,1769.251,1366.615,1765.727z"/>
				
					<linearGradient id="SVGID_00000072273885723247502920000005417495383965982593_" gradientUnits="userSpaceOnUse" x1="744.3905" y1="1763.4633" x2="1361.9235" y2="1763.4633">
					<stop  offset="0.0036" style="stop-color:#E38DDD"/>
					<stop  offset="0.7059" style="stop-color:#AC79EF"/>
					<stop  offset="1" style="stop-color:#9571F6"/>
				</linearGradient>
				<path style="opacity:0.3;fill:url(#SVGID_00000072273885723247502920000005417495383965982593_);" d="M1290.512,1675.49
					c-18.109-6.76-43.688-8.968-68.255,0c-58.569,21.379-63.636,94.042-94.523,95.714c-42.651,2.309-51.664-135.231-113.393-149.268
					c-74.881-17.028-151.376,164.944-221.568,147.011c-19.557-4.997-33.147-24.12-42.701-46.545
					c-4.205,8.184-6.11,16.264-5.602,24.493c3.476,56.307,90.316,115.735,158.561,105.008
					c72.8-11.443,107.016-99.978,137.017-87.703c27.772,11.363-1.054,87.43,41.498,123.406
					c29.743,25.146,87.081,24.551,121.809-1.05c63.582-46.874,32.835-163.905,72.456-175.363
					c15.561-4.5,37.698,17.015,59.452,36.981c11.424,10.487,19.841,20.531,25.605,28.124c0.351-0.647,0.703-1.294,1.055-1.94
					C1351.663,1725.497,1325.328,1688.485,1290.512,1675.49z"/>
				
					<linearGradient id="SVGID_00000000203042084839855910000005164568110067265440_" gradientUnits="userSpaceOnUse" x1="1463.4601" y1="2051.3281" x2="1239.7925" y2="2356.9021">
					<stop  offset="0" style="stop-color:#AA80F9"/>
					<stop  offset="0.9964" style="stop-color:#6165D7"/>
				</linearGradient>
				<path style="opacity:0.3;fill:url(#SVGID_00000000203042084839855910000005164568110067265440_);" d="M1252.185,2432.599
					c39.507-50.513,124.721-33.254,140.186-78.756c10.603-31.194-22.656-59.281-44.103-100.808
					c-24.514-47.466-38.055-121.246,2.003-239.38c-2.709,0.302-4.43,0.635-5.153,1.011c-75.756,39.468,4.59,193.376-90.307,327.625
					c-28.372,40.137-59.153,59.766-88.156,124.409c-24.54,54.695-34.413,111.76-26.303,115.01
					c5.938,2.38,14.439-26.934,42.892-48.968c16.828-13.033,33.171-17.724,50.747-19.742
					C1230.361,2472.404,1240.085,2448.068,1252.185,2432.599z"/>
				
					<linearGradient id="SVGID_00000076581575807187452010000004342119182653177525_" gradientUnits="userSpaceOnUse" x1="1067.8665" y1="2193.6111" x2="1420.2262" y2="2193.6111">
					<stop  offset="0.494" style="stop-color:#EBEFF2"/>
					<stop  offset="1" style="stop-color:#FFFFFF"/>
				</linearGradient>
				<path style="fill:url(#SVGID_00000076581575807187452010000004342119182653177525_);" d="M1212.807,2376.944
					c-8.763-0.948-99.856-12.187-133.361-84.006c-19.657-42.135-9.324-83.329-4.785-100.39
					c32.895-123.619,200.382-212.042,306.326-172.896c16.929,6.256,35.217,13.013,38.686,27.567
					c13.481,56.555-223.489,118.842-228.182,228.652c-1.527,35.744,22.016,65.75,40.218,84.272
					C1225.408,2365.744,1219.107,2371.344,1212.807,2376.944z"/>
				
					<linearGradient id="SVGID_00000124856133505356651210000015267435549368016811_" gradientUnits="userSpaceOnUse" x1="1302.4653" y1="2316.8906" x2="1135.5022" y2="2520.0818">
					<stop  offset="0" style="stop-color:#FFC444"/>
					<stop  offset="0.9964" style="stop-color:#F36F56"/>
				</linearGradient>
				<path style="fill:url(#SVGID_00000124856133505356651210000015267435549368016811_);" d="M1214.107,2380.304
					c0,0,9.006,12.939,26.829,6.9c17.823-6.04,24.383-24.922,33.824-23.559c9.441,1.364,41.634-4.904,41.634-4.904
					s-15.112-10.992-42.049-13.496c-26.938-2.504-46.15,12.342-46.15,12.342S1201.832,2365.845,1214.107,2380.304z"/>
			</g>
			<g>
				
					<linearGradient id="SVGID_00000000901096890059601680000016789382811240568757_" gradientUnits="userSpaceOnUse" x1="2761.8843" y1="880.5038" x2="2865.8367" y2="1858.6079">
					<stop  offset="0" style="stop-color:#FFC444"/>
					<stop  offset="0.9964" style="stop-color:#F36F56"/>
				</linearGradient>
				<path style="fill:url(#SVGID_00000000901096890059601680000016789382811240568757_);" d="M2955.443,1427.573
					c49.324-10.377,98.018-24.157,144.81-42.723c4.965-93.966-14.218-185.982-27.373-249.055
					c-57.585-276.116-246.468-476.86-281.564-459.683c-26.593,13.015,47.184,145.23-9.451,203.181
					c-73.552,75.261-291.816-51.73-312.617-16.889C2437.295,915.927,2959.95,1202.848,2955.443,1427.573z"/>
				
					<linearGradient id="SVGID_00000087377574988728402280000009458208923240490147_" gradientUnits="userSpaceOnUse" x1="2467.8408" y1="1141.8942" x2="3054.6211" y2="1141.8942">
					<stop  offset="0" style="stop-color:#FFC444"/>
					<stop  offset="0.9964" style="stop-color:#F36F56"/>
				</linearGradient>
				<path style="opacity:0.3;fill:url(#SVGID_00000087377574988728402280000009458208923240490147_);" d="M2955.443,1427.573
					c32.75-6.89,65.221-15.281,97.045-25.573c5.015-67.62,9.597-226.875-91.068-319.526
					c-92.228-84.886-193.732-41.081-321.308-127.579c-36.583-24.803-66.255-54.203-90.436-85.009
					c-41.318-11.956-73.108-19.743-80.428-7.482C2437.295,915.927,2959.95,1202.848,2955.443,1427.573z"/>
			</g>
			<g>
				
					<linearGradient id="SVGID_00000022553481645163618010000001247708994081393560_" gradientUnits="userSpaceOnUse" x1="2260.1248" y1="2453.0015" x2="2189.2478" y2="1493.8004">
					<stop  offset="0" style="stop-color:#FFC444"/>
					<stop  offset="0.9964" style="stop-color:#F36F56"/>
				</linearGradient>
				<path style="fill:url(#SVGID_00000022553481645163618010000001247708994081393560_);" d="M2149.708,2298.381
					c-117.484-7.159-214.477,36.509-302.571,100.23c14.302,94.228,28.422,188.515,39.812,283.142
					c43.977-14.22,91.197-19.502,143.622-11.634c221.771,33.283,389.729,278.863,438.192,237.061
					c32.373-27.924-42.53-137.542,1.633-183.312c50.912-52.765,198.596,43.023,216.967,17.128
					C2715.827,2700.871,2469.784,2317.885,2149.708,2298.381z"/>
				
					<linearGradient id="SVGID_00000078029439058720268910000014184678368825703055_" gradientUnits="userSpaceOnUse" x1="2232.8989" y1="2455.0132" x2="2162.022" y2="1495.811">
					<stop  offset="0" style="stop-color:#FFC444"/>
					<stop  offset="0.9964" style="stop-color:#F36F56"/>
				</linearGradient>
				<path style="opacity:0.3;fill:url(#SVGID_00000078029439058720268910000014184678368825703055_);" d="M2626.713,2733.907
					c-70.604-123.41-177.983-246.944-335.246-288.956c-156.363-41.772-310.109,10.917-427.754,64.479
					c8.388,57.356,16.308,114.778,23.235,172.323c43.977-14.22,91.197-19.502,143.622-11.634
					c221.771,33.283,389.729,278.863,438.192,237.061c32.373-27.924-42.53-137.542,1.633-183.312
					C2502.758,2690.327,2574.216,2716.808,2626.713,2733.907z"/>
			</g>
			<path style="fill:#C1CAD4;" d="M1824.047,2878.031h-415.931v147.384h387.971
				C1806.711,2976.532,1816.114,2927.401,1824.047,2878.031z"/>
		</g>
	</g>
</g>
</svg>
